# xmcd
#
# Track frame offsets:
#	150
#	8761
#	18562
#	28687
#	39963
#	49613
#	58736
#	67650
#	76937
#	84952
#	96512
#	108824
#	117211
#
# Disc length: 1729 seconds
# Revision: 1
# Processed by: cddbd v1.5.2PL0 Copyright (c) Steve Scherf et al.
# Submitted via: dBpowerAMP V12.0
#
DISCID=9006bf0d
DTITLE=Johnny Cash - The Magnificent
DYEAR=1959
DGENRE=Country
TTITLE0=Drink To Me
TTITLE1=The Man On The Hill
TTITLE2=Hank And Joe And Me
TTITLE3=Clementine
TTITLE4=The Great Speckled Bird
TTITLE5=Austin Prison
TTITLE6=I Want To Go Home
TTITLE7=The Caretaker
TTITLE8=Old Apache Squaw
TTITLE9=Don't Step On Mother's Roses
TTITLE10=My Grandfather's Clock
TTITLE11=It Could Be You
TTITLE12=Locomotive Man (1960 Bonus Track)
EXTD=
EXTT0=
EXTT1=
EXTT2=
EXTT3=
EXTT4=
EXTT5=
EXTT6=
EXTT7=
EXTT8=
EXTT9=
EXTT10=
EXTT11=
EXTT12=
PLAYORDER=
